<?xml version="1.0" encoding="utf-8"?>
<!-- Generator: Adobe Illustrator 25.4.1, SVG Export Plug-In . SVG Version: 6.00 Build 0)  -->
<svg version="1.1" id="Layer_1" xmlns="http://www.w3.org/2000/svg" xmlns:xlink="http://www.w3.org/1999/xlink" x="0px" y="0px"
	 viewBox="0 0 100 100" style="enable-background:new 0 0 100 100;" xml:space="preserve">
<style type="text/css">
	.st0{fill:#3E8E7E;}
</style>
<path class="st0" d="M50.3,75.4C36.3,75.4,25,64,25,50s11.4-25.4,25.4-25.4S75.7,36,75.7,50S64.4,75.4,50.3,75.4z M50.3,79
	c16,0,29-13,29-29s-13-29-29-29s-29,13-29,29S34.3,79,50.3,79z"/>
<path class="st0" d="M60.4,39C60.4,39,60.4,39.1,60.4,39L47.8,55.1l-7.6-7.6c-1.1-1-2.8-1-3.8,0.1c-1,1-1,2.7,0,3.7l9.6,9.6
	c1.1,1.1,2.8,1.1,3.8,0c0,0,0,0,0.1-0.1l14.5-18.1c1-1.1,1-2.8-0.1-3.8C63.2,38,61.5,38,60.4,39z"/>
</svg>
